<?xml version="1.0" encoding="UTF-8"?>
<svg width="2305px" height="480px" viewBox="0 0 2305 480" version="1.1" xmlns="http://www.w3.org/2000/svg" xmlns:xlink="http://www.w3.org/1999/xlink">
    <title>Group</title>
    <g id="Page-1" stroke="none" stroke-width="1" fill="none" fill-rule="evenodd">
        <g id="Artboard" transform="translate(-100.000000, 1.000000)">
            <g id="Group" transform="translate(1252.500000, 239.000000) rotate(-6.000000) translate(-1252.500000, -239.000000) translate(107.000000, 119.000000)">
                <rect id="Rectangle" fill="#DE095B" x="0" y="0" width="2291" height="240"></rect>
                <path d="M184.525,169.7 L184.525,102.2 L209.725,169.7 L221.125,169.7 L246.475,102.2 L246.475,169.7 L272.275,169.7 L272.275,69.65 L236.425,69.65 L215.425,126.35 L194.575,69.65 L158.725,69.65 L158.725,169.7 L184.525,169.7 Z M338.725,171.5 C369.325,171.5 392.125,150.2 392.125,119.75 C392.125,89.3 369.325,68 338.725,68 C308.125,68 285.175,89.3 285.175,119.75 C285.175,150.2 308.125,171.5 338.725,171.5 Z M338.725,148.7 C322.075,148.7 311.425,135.95 311.425,119.75 C311.425,103.4 322.075,90.8 338.725,90.8 C355.225,90.8 365.875,103.4 365.875,119.75 C365.875,135.95 355.225,148.7 338.725,148.7 Z M430.975,169.7 L430.975,135.8 L444.175,135.8 L460.975,169.7 L490.525,169.7 L470.125,132.95 C479.425,129.65 490.075,120.35 490.075,102.95 C490.075,84.35 477.475,69.65 455.275,69.65 L405.175,69.65 L405.175,169.7 L430.975,169.7 Z M451.375,113.9 L430.975,113.9 L430.975,91.4 L451.375,91.4 C458.125,91.4 463.825,95.75 463.825,102.65 C463.825,109.55 458.125,113.9 451.375,113.9 Z M577.675,169.7 L577.675,147.95 L530.125,147.95 L530.125,129.95 L576.625,129.95 L576.625,108.05 L530.125,108.05 L530.125,91.4 L577.675,91.4 L577.675,69.65 L504.325,69.65 L504.325,169.7 L577.675,169.7 Z M656.875,169.7 L656.875,69.65 L631.075,69.65 L631.075,169.7 L656.875,169.7 Z M700.675,169.7 L700.675,109.25 L742.975,169.7 L767.875,169.7 L767.875,69.65 L741.925,69.65 L741.925,127.25 L701.425,69.65 L674.875,69.65 L674.875,169.7 L700.675,169.7 Z M811.675,169.7 L811.675,129.95 L858.175,129.95 L858.175,108.05 L811.675,108.05 L811.675,91.4 L859.225,91.4 L859.225,69.65 L785.875,69.65 L785.875,169.7 L811.675,169.7 Z M921.625,171.5 C952.225,171.5 975.025,150.2 975.025,119.75 C975.025,89.3 952.225,68 921.625,68 C891.025,68 868.075,89.3 868.075,119.75 C868.075,150.2 891.025,171.5 921.625,171.5 Z M921.625,148.7 C904.975,148.7 894.325,135.95 894.325,119.75 C894.325,103.4 904.975,90.8 921.625,90.8 C938.125,90.8 948.775,103.4 948.775,119.75 C948.775,135.95 938.125,148.7 921.625,148.7 Z M1074.775,171.5 C1099.675,171.5 1112.725,157.55 1119.175,144.65 L1096.975,134.15 C1093.675,142.1 1085.125,148.7 1074.775,148.7 C1059.175,148.7 1047.625,136.1 1047.625,119.75 C1047.625,103.4 1059.175,90.8 1074.775,90.8 C1085.125,90.8 1093.675,97.4 1096.975,105.35 L1119.175,94.85 C1112.575,81.65 1099.675,68 1074.775,68 C1044.775,68 1021.375,88.85 1021.375,119.75 C1021.375,150.5 1044.775,171.5 1074.775,171.5 Z M1178.725,171.5 C1209.325,171.5 1232.125,150.2 1232.125,119.75 C1232.125,89.3 1209.325,68 1178.725,68 C1148.125,68 1125.175,89.3 1125.175,119.75 C1125.175,150.2 1148.125,171.5 1178.725,171.5 Z M1178.725,148.7 C1162.075,148.7 1151.425,135.95 1151.425,119.75 C1151.425,103.4 1162.075,90.8 1178.725,90.8 C1195.225,90.8 1205.875,103.4 1205.875,119.75 C1205.875,135.95 1195.225,148.7 1178.725,148.7 Z M1270.975,169.7 L1270.975,102.2 L1296.175,169.7 L1307.575,169.7 L1332.925,102.2 L1332.925,169.7 L1358.725,169.7 L1358.725,69.65 L1322.875,69.65 L1301.875,126.35 L1281.025,69.65 L1245.175,69.65 L1245.175,169.7 L1270.975,169.7 Z M1402.525,169.7 L1402.525,69.65 L1376.725,69.65 L1376.725,169.7 L1402.525,169.7 Z M1446.325,169.7 L1446.325,109.25 L1488.625,169.7 L1513.525,169.7 L1513.525,69.65 L1487.575,69.65 L1487.575,127.25 L1447.075,69.65 L1420.525,69.65 L1420.525,169.7 L1446.325,169.7 Z M1580.575,171.5 C1599.475,171.5 1614.025,163.85 1624.825,152 L1624.825,112.85 L1576.525,112.85 L1576.525,134.3 L1599.475,134.3 L1599.475,142.7 C1595.425,146 1588.375,148.7 1580.575,148.7 C1564.225,148.7 1552.675,136.1 1552.675,119.75 C1552.675,103.4 1564.225,90.8 1580.575,90.8 C1590.025,90.8 1597.675,96.05 1601.725,102.65 L1623.325,91.25 C1615.975,78.8 1602.475,68 1580.575,68 C1550.725,68 1526.425,87.95 1526.425,119.75 C1526.425,151.55 1550.725,171.5 1580.575,171.5 Z M1715.575,171.5 C1742.425,171.5 1757.275,158.15 1757.275,138.05 C1757.275,115.4 1734.475,110.6 1717.975,107.15 C1706.875,105.05 1700.725,103.25 1700.725,98 C1700.725,93.65 1704.025,90.2 1712.575,90.2 C1721.425,90.2 1732.375,93.65 1740.775,100.55 L1754.875,82.1 C1744.225,72.95 1730.275,68.15 1714.225,68.15 C1688.575,68.15 1674.325,82.7 1674.325,99.5 C1674.325,123.2 1697.425,127.4 1713.925,130.7 C1724.575,132.95 1731.025,135.2 1731.025,140.9 C1731.025,145.7 1725.625,149.45 1716.775,149.45 C1703.125,149.45 1692.025,143.45 1684.825,136.25 L1671.175,155.6 C1681.225,165.2 1695.325,171.5 1715.575,171.5 Z M1817.725,171.5 C1848.325,171.5 1871.125,150.2 1871.125,119.75 C1871.125,89.3 1848.325,68 1817.725,68 C1787.125,68 1764.175,89.3 1764.175,119.75 C1764.175,150.2 1787.125,171.5 1817.725,171.5 Z M1817.725,148.7 C1801.075,148.7 1790.425,135.95 1790.425,119.75 C1790.425,103.4 1801.075,90.8 1817.725,90.8 C1834.225,90.8 1844.875,103.4 1844.875,119.75 C1844.875,135.95 1834.225,148.7 1817.725,148.7 Z M1932.625,171.5 C1963.225,171.5 1986.025,150.2 1986.025,119.75 C1986.025,89.3 1963.225,68 1932.625,68 C1902.025,68 1879.075,89.3 1879.075,119.75 C1879.075,150.2 1902.025,171.5 1932.625,171.5 Z M1932.625,148.7 C1915.975,148.7 1905.325,135.95 1905.325,119.75 C1905.325,103.4 1915.975,90.8 1932.625,90.8 C1949.125,90.8 1959.775,103.4 1959.775,119.75 C1959.775,135.95 1949.125,148.7 1932.625,148.7 Z M2024.875,169.7 L2024.875,109.25 L2067.175,169.7 L2092.075,169.7 L2092.075,69.65 L2066.125,69.65 L2066.125,127.25 L2025.625,69.65 L1999.075,69.65 L1999.075,169.7 L2024.875,169.7 Z M2131.525,134.75 L2134.975,69.65 L2107.375,69.65 L2110.975,134.75 L2131.525,134.75 Z M2121.175,171.35 C2128.825,171.35 2135.275,164.9 2135.275,157.4 C2135.275,149.75 2128.825,143.3 2121.175,143.3 C2113.525,143.3 2107.225,149.75 2107.225,157.4 C2107.225,164.9 2113.525,171.35 2121.175,171.35 Z" id="MOREINFOCOMINGSOON!" fill="#FFFFFF" fill-rule="nonzero"></path>
            </g>
        </g>
    </g>
</svg>