<?xml version="1.0" encoding="UTF-8"?>
<svg width="312px" height="67px" viewBox="0 0 312 67" version="1.1" xmlns="http://www.w3.org/2000/svg" xmlns:xlink="http://www.w3.org/1999/xlink">
    <title>Group</title>
    <g id="Hackathon-LP" stroke="none" stroke-width="1" fill="none" fill-rule="evenodd">
        <g id="Ihr-wisst-ja-längst:-Tragt-die-Maske,-denn-das-schützt-sowohl-eure-Umgebung,-als-auch-euch-selbst.--" transform="translate(-577.000000, -347.000000)">
            <g id="Group" transform="translate(733.000000, 380.500000) rotate(-5.000000) translate(-733.000000, -380.500000) translate(579.000000, 361.000000)">
                <rect id="Rectangle" fill="#DE095B" x="0" y="-3.55271368e-15" width="308" height="39"></rect>
                <path d="M41.436,28.94 C46.506,28.94 48.872,24.546 48.872,19.97 C48.872,15.394 46.506,11.026 41.436,11.026 C36.366,11.026 34,15.394 34,19.97 C34,24.546 36.366,28.94 41.436,28.94 Z M41.436,24.988 C39.356,24.988 38.524,23.038 38.524,19.97 C38.524,16.902 39.356,14.978 41.436,14.978 C43.516,14.978 44.348,16.902 44.348,19.97 C44.348,23.038 43.516,24.988 41.436,24.988 Z M56.308,28.914 C61.56,28.914 64.888,25.456 64.888,19.944 C64.888,14.952 62.496,11 57.01,11 C52.98,11 50.094,13.522 50.094,17.084 C50.094,20.776 53.006,22.726 56.126,22.726 C57.868,22.726 59.506,21.868 60.364,20.724 L60.364,20.932 C60.364,23.298 58.7,25.118 56.308,25.118 C54.904,25.118 53.942,24.754 52.98,23.974 L51.056,27.25 C52.356,28.29 54.28,28.914 56.308,28.914 Z M57.452,19.06 C56.048,19.06 54.644,18.436 54.644,16.902 C54.644,15.862 55.554,14.796 57.218,14.796 C59.402,14.796 60.26,16.46 60.364,17.89 C59.61,18.644 58.544,19.06 57.452,19.06 Z M69.074,28.94 C70.4,28.94 71.518,27.822 71.518,26.496 C71.518,25.17 70.4,24.052 69.074,24.052 C67.748,24.052 66.63,25.17 66.63,26.496 C66.63,27.822 67.748,28.94 69.074,28.94 Z M85.61,28.94 C87.352,28.94 88.86,28.42 90.16,27.562 C90.55,27.978 90.888,28.342 91.174,28.628 L96.192,28.628 C94.996,27.38 93.904,26.21 92.838,25.04 C93.826,23.792 94.632,22.388 95.282,21.01 L92.162,19.528 C91.85,20.516 91.356,21.608 90.706,22.57 C90.316,22.102 89.9,21.608 89.51,21.114 C89.146,20.672 88.73,20.126 88.288,19.528 C90.394,18.592 92.474,17.474 92.474,14.822 C92.474,12.43 90.16,11.026 87.612,11.026 C84.518,11.026 82.36,12.898 82.36,15.264 C82.36,16.408 82.776,17.656 83.426,18.878 C81.45,19.866 79.734,21.218 79.734,23.818 C79.734,27.25 82.334,28.94 85.61,28.94 Z M86.91,17.37 C86.546,16.642 86.286,15.94 86.286,15.342 C86.286,14.484 86.936,13.86 87.794,13.86 C88.522,13.86 89.068,14.328 89.068,15.056 C89.068,16.122 88.158,16.772 86.91,17.37 Z M86.182,25.846 C84.986,25.846 83.92,24.884 83.92,23.428 C83.92,22.544 84.31,21.868 84.908,21.348 C85.428,22.05 85.948,22.752 86.442,23.376 C86.832,23.844 87.43,24.546 88.08,25.274 C87.482,25.638 86.832,25.846 86.182,25.846 Z M112.858,28.628 L112.858,11.286 L108.984,11.286 L102.926,17.266 L105.474,19.944 L108.386,17.006 L108.386,28.628 L112.858,28.628 Z M122.53,28.94 C127.6,28.94 129.966,24.546 129.966,19.97 C129.966,15.394 127.6,11.026 122.53,11.026 C117.46,11.026 115.094,15.394 115.094,19.97 C115.094,24.546 117.46,28.94 122.53,28.94 Z M122.53,24.988 C120.45,24.988 119.618,23.038 119.618,19.97 C119.618,16.902 120.45,14.978 122.53,14.978 C124.61,14.978 125.442,16.902 125.442,19.97 C125.442,23.038 124.61,24.988 122.53,24.988 Z M134.126,28.94 C135.452,28.94 136.57,27.822 136.57,26.496 C136.57,25.17 135.452,24.052 134.126,24.052 C132.8,24.052 131.682,25.17 131.682,26.496 C131.682,27.822 132.8,28.94 134.126,28.94 Z M154.276,28.94 C159.58,28.94 163.532,25.248 163.532,19.97 C163.532,14.692 159.58,11 154.276,11 C148.972,11 144.994,14.692 144.994,19.97 C144.994,25.248 148.972,28.94 154.276,28.94 Z M154.276,24.988 C151.39,24.988 149.544,22.778 149.544,19.97 C149.544,17.136 151.39,14.952 154.276,14.952 C157.136,14.952 158.982,17.136 158.982,19.97 C158.982,22.778 157.136,24.988 154.276,24.988 Z M170.266,28.628 L170.266,23.558 L171.436,22.102 L175.986,28.628 L181.472,28.628 L174.374,19.398 L181.108,11.286 L175.596,11.286 L170.266,18.41 L170.266,11.286 L165.794,11.286 L165.794,28.628 L170.266,28.628 Z M191.144,28.628 L191.144,15.186 L195.98,15.186 L195.98,11.286 L181.81,11.286 L181.81,15.186 L186.672,15.186 L186.672,28.628 L191.144,28.628 Z M200.036,28.94 C201.362,28.94 202.48,27.822 202.48,26.496 C202.48,25.17 201.362,24.052 200.036,24.052 C198.71,24.052 197.592,25.17 197.592,26.496 C197.592,27.822 198.71,28.94 200.036,28.94 Z M224.97,28.628 L224.97,24.728 L218.288,24.728 C222.942,21.712 224.84,19.45 224.84,16.798 C224.84,13.314 221.902,11.026 217.82,11.026 C215.402,11.026 212.646,11.884 210.8,13.912 L213.27,16.876 C214.518,15.706 215.974,14.978 217.82,14.978 C219.172,14.978 220.29,15.602 220.29,16.798 C220.29,18.514 218.886,19.71 211.372,25.144 L211.372,28.628 L224.97,28.628 Z M234.122,28.94 C239.192,28.94 241.558,24.546 241.558,19.97 C241.558,15.394 239.192,11.026 234.122,11.026 C229.052,11.026 226.686,15.394 226.686,19.97 C226.686,24.546 229.052,28.94 234.122,28.94 Z M234.122,24.988 C232.042,24.988 231.21,23.038 231.21,19.97 C231.21,16.902 232.042,14.978 234.122,14.978 C236.202,14.978 237.034,16.902 237.034,19.97 C237.034,23.038 236.202,24.988 234.122,24.988 Z M256.976,28.628 L256.976,24.728 L250.294,24.728 C254.948,21.712 256.846,19.45 256.846,16.798 C256.846,13.314 253.908,11.026 249.826,11.026 C247.408,11.026 244.652,11.884 242.806,13.912 L245.276,16.876 C246.524,15.706 247.98,14.978 249.826,14.978 C251.178,14.978 252.296,15.602 252.296,16.798 C252.296,18.514 250.892,19.71 243.378,25.144 L243.378,28.628 L256.976,28.628 Z M266.128,28.94 C271.198,28.94 273.564,24.546 273.564,19.97 C273.564,15.394 271.198,11.026 266.128,11.026 C261.058,11.026 258.692,15.394 258.692,19.97 C258.692,24.546 261.058,28.94 266.128,28.94 Z M266.128,24.988 C264.048,24.988 263.216,23.038 263.216,19.97 C263.216,16.902 264.048,14.978 266.128,14.978 C268.208,14.978 269.04,16.902 269.04,19.97 C269.04,23.038 268.208,24.988 266.128,24.988 Z" id="09.&amp;10.OKT.2020" fill="#FFFFFF" fill-rule="nonzero"></path>
            </g>
        </g>
    </g>
</svg>