<?xml version="1.0" encoding="UTF-8"?>
<svg width="214px" height="153px" viewBox="0 0 214 153" version="1.1" xmlns="http://www.w3.org/2000/svg" xmlns:xlink="http://www.w3.org/1999/xlink">
    <g id="Page-1" stroke="none" stroke-width="1" fill="none" fill-rule="evenodd">
        <g id="Group-2" transform="translate(0.580000, 1.320000)" fill-rule="nonzero">
            <path d="M11.4,95.68 L14.82,80.26 L28.32,80.26 L30.42,70.6 L16.98,70.6 L18.12,65.32 L31.98,65.32 L34.14,55.66 L8.88,55.66 L-2.84217094e-14,95.68 L11.4,95.68 Z M49.6,53.62 C52.54,53.62 55.36,50.92 55.36,47.98 C55.36,45.4 53.38,43.48 50.86,43.48 C47.86,43.48 45.1,46.12 45.1,49.12 C45.1,51.64 47.02,53.62 49.6,53.62 Z M61.6,53.62 C64.6,53.62 67.36,50.92 67.36,47.98 C67.36,45.4 65.44,43.48 62.86,43.48 C59.92,43.48 57.16,46.12 57.16,49.12 C57.16,51.64 59.08,53.62 61.6,53.62 Z M47.5,96.4 C57.4,96.4 63.16,90.58 65.2,80.98 L70.84,55.66 L59.38,55.66 L53.74,81.16 C53.02,84.46 51.28,86.5 48.28,86.5 C45.28,86.5 43.84,84.64 43.84,82.54 C43.84,82.06 43.96,81.22 44.08,80.62 L49.6,55.66 L38.14,55.66 L32.8,79.72 C32.5,81.22 32.38,82.72 32.38,83.26 C32.38,91.06 38.02,96.4 47.5,96.4 Z M78.62,95.68 L81.5,82.6 L84.74,82.6 L86.36,95.68 L98.54,95.68 L95.78,81.28 C100.04,79.6 104.3,74.02 104.3,67.36 C104.3,60.52 98.9,55.66 92.06,55.66 L76.1,55.66 L67.22,95.68 L78.62,95.68 Z M87.98,72.94 L83.66,72.94 L85.34,65.32 L89.42,65.32 C91.22,65.32 92.54,66.4 92.54,68.5 C92.54,71.08 90.68,72.94 87.98,72.94 Z M129.34,95.68 C147.34,95.68 152.86,81.16 152.86,71.32 C152.86,61.48 145.36,55.66 137.86,55.66 L123.04,55.66 L114.16,95.68 L129.34,95.68 Z M131.38,85.78 L127.78,85.78 L132.22,65.56 L135.76,65.56 C138.94,65.56 141.22,67.96 141.22,71.86 C141.22,77.26 137.92,85.78 131.38,85.78 Z M162.86,95.68 L171.68,55.66 L160.34,55.66 L151.46,95.68 L162.86,95.68 Z M193.38,95.68 L195.48,86.02 L181.62,86.02 L182.88,80.26 L196.38,80.26 L198.48,70.6 L185.04,70.6 L186.18,65.32 L200.04,65.32 L202.2,55.66 L176.94,55.66 L168.06,95.68 L193.38,95.68 Z" id="FÜRDIE" fill="#FFFFFF"></path>
            <path d="M11.4,40.68 L14.82,25.02 L24.9,25.02 L21.48,40.68 L32.82,40.68 L41.64,0.66 L30.3,0.66 L27.12,15.12 L17.04,15.12 L20.22,0.66 L8.88,0.66 L2.84217094e-14,40.68 L11.4,40.68 Z M46.6,40.68 L49,35.28 L60.46,35.28 L60.46,40.68 L71.74,40.68 L68.8,0.66 L55.06,0.66 L34.48,40.68 L46.6,40.68 Z M60.46,25.62 L53.32,25.62 L60.22,10.26 L60.46,25.62 Z M90.08,41.4 C96.02,41.4 101.96,38.34 105.86,31.44 L96.86,26.7 C95.54,29.52 92.96,31.38 90.62,31.38 C87.14,31.38 84.98,28.74 84.98,24.84 C84.98,19.26 88.58,10.02 94.04,10.02 C97.16,10.02 98.96,12.78 99.32,16.2 L110.06,13.44 C109.1,7.08 104.96,0 94.64,0 C81.2,0 73.34,13.38 73.34,25.14 C73.34,35.04 80.18,41.4 90.08,41.4 Z M117.48,40.68 L119.64,31.02 L123,26.76 L127.2,40.68 L139.8,40.68 L131.64,19.26 L147.96,0.66 L134.22,0.66 L123.12,15.18 L126.3,0.66 L114.96,0.66 L106.08,40.68 L117.48,40.68 Z M166.78,40.68 L168.88,31.02 L155.02,31.02 L156.28,25.26 L169.78,25.26 L171.88,15.6 L158.44,15.6 L159.58,10.32 L173.44,10.32 L175.6,0.66 L150.34,0.66 L141.46,40.68 L166.78,40.68 Z M182.3,40.68 L186.86,19.56 L193.04,40.68 L203.78,40.68 L212.6,0.66 L201.44,0.66 L197.06,20.58 L191.42,0.66 L179.9,0.66 L171.02,40.68 L182.3,40.68 Z" id="HACKEN" stroke="#FFFFFF"></path>
            <path d="M11.4,150.68 L14.28,137.6 L17.52,137.6 L19.14,150.68 L31.32,150.68 L28.56,136.28 C32.82,134.6 37.08,129.02 37.08,122.36 C37.08,115.52 31.68,110.66 24.84,110.66 L8.88,110.66 L2.84217094e-14,150.68 L11.4,150.68 Z M20.76,127.94 L16.44,127.94 L18.12,120.32 L22.2,120.32 C24,120.32 25.32,121.4 25.32,123.5 C25.32,126.08 23.46,127.94 20.76,127.94 Z M60.46,150.68 L62.56,141.02 L48.7,141.02 L49.96,135.26 L63.46,135.26 L65.56,125.6 L52.12,125.6 L53.26,120.32 L67.12,120.32 L69.28,110.66 L44.02,110.66 L35.14,150.68 L60.46,150.68 Z M83.36,151.4 C89.24,151.4 94.52,148.7 98.06,143.66 L101.72,127.34 L85.52,127.34 L83.36,136.94 L89.06,136.94 L88.52,139.52 C87.26,140.6 85.82,141.38 83.96,141.38 C80.18,141.38 78.26,138.56 78.26,134.84 C78.26,128.78 82.16,120.02 87.38,120.02 C90.2,120.02 92.24,122.18 92.66,124.7 L102.68,121.34 C101.54,115.4 97.16,110 88.52,110 C74.48,110 66.62,123.2 66.62,135.14 C66.62,145.1 73.58,151.4 83.36,151.4 Z M112.26,150.68 L121.08,110.66 L109.74,110.66 L100.86,150.68 L112.26,150.68 Z M136.12,151.4 C149.74,151.4 157.36,137.54 157.36,126.2 C157.36,116.84 150.82,110 140.68,110 C127,110 119.38,123.86 119.38,135.14 C119.38,144.56 125.86,151.4 136.12,151.4 Z M136.66,141.38 C133.12,141.38 131.02,138.62 131.02,134.84 C131.02,129.26 134.62,120.02 140.02,120.02 C143.56,120.02 145.72,122.78 145.72,126.56 C145.72,132.14 142.06,141.38 136.66,141.38 Z M166.88,150.68 L171.44,129.56 L177.62,150.68 L188.36,150.68 L197.18,110.66 L186.02,110.66 L181.64,130.58 L176,110.66 L164.48,110.66 L155.6,150.68 L166.88,150.68 Z M199.62,151.46 C203.22,151.46 206.28,148.4 206.28,144.86 C206.28,141.74 203.88,139.22 200.76,139.22 C197.22,139.22 194.1,142.22 194.1,145.82 C194.1,148.88 196.56,151.46 199.62,151.46 Z" id="REGION." fill="#FFFFFF"></path>
        </g>
    </g>
</svg>