<?xml version="1.0" encoding="UTF-8"?>
<svg width="35px" height="35px" viewBox="0 0 35 35" version="1.1" xmlns="http://www.w3.org/2000/svg" xmlns:xlink="http://www.w3.org/1999/xlink">
    <title>Location</title>
    <g id="Location" stroke="none" stroke-width="1" fill="none" fill-rule="evenodd">
        <path d="M17.4995044,2 C23.8511594,2 29,7.26997137 29,13.7710543 C29,15.3244552 28.6932763,16.7779676 27.9539918,18.6233611 C27.7031531,19.1389764 27.4969639,19.5405466 27.298406,19.8893859 C27.2051357,20.0532491 27.1117601,20.2085336 27.0125838,20.36481 C26.6836573,20.8831135 26.6599566,20.9155339 25.1739793,22.9073839 L17.4995527,33 L9.82047352,22.9000185 C8.34004335,20.9155339 8.31634275,20.8831135 7.98741617,20.36481 C7.88823986,20.2085336 7.79486433,20.0532491 7.70159401,19.8893859 C7.50303606,19.5405466 7.29684686,19.1389764 7.01802692,18.559824 C6.30672371,16.7779676 6,15.3244552 6,13.7710543 C6,7.27011581 11.1486995,2 17.4995044,2 Z M17.4995044,7.86929402 C14.9698315,7.86929402 12.9199241,9.96742712 12.9199241,12.5566127 C12.9199241,15.1457982 14.9698315,17.2449459 17.4995044,17.2449459 C20.0301685,17.2449459 22.0800759,15.1457982 22.0800759,12.5566127 C22.0800759,9.96742712 20.0301685,7.86929402 17.4995044,7.86929402 Z" id="Combined-Shape" stroke="#090c35" stroke-width="1.5"></path>
    </g>
</svg>