<?xml version="1.0" encoding="UTF-8"?>
<svg width="288px" height="53px" viewBox="0 0 288 53" version="1.1" xmlns="http://www.w3.org/2000/svg" xmlns:xlink="http://www.w3.org/1999/xlink">
    <title>Group 2</title>
    <defs>
        <polygon id="path-1" points="0 24.0002 287 24.0002 287 0.0002 0 0.0002"></polygon>
    </defs>
    <g id="Hackathon-LP" stroke="none" stroke-width="1" fill="none" fill-rule="evenodd">
        <g id="Ihr-wisst-ja-längst:-Tragt-die-Maske,-denn-das-schützt-sowohl-eure-Umgebung,-als-auch-euch-selbst.--" transform="translate(-1033.000000, -522.000000)">
            <g id="Group-2" transform="translate(1033.000000, 522.000000)">
                <g id="Group-18" transform="translate(0.000000, 29.000000)">
                    <path d="M38.9741,18.609 C40.4001,18.609 41.2701,17.739 41.2701,16.486 C41.2701,15.304 40.4351,14.296 38.9741,14.296 L32.9571,14.296 L32.9571,18.609 L38.9741,18.609 Z M38.7661,9.356 C39.9821,9.356 40.8171,8.487 40.8171,7.339 C40.8171,6.192 39.9821,5.356 38.7661,5.356 L32.9571,5.356 L32.9571,9.356 L38.7661,9.356 Z M26.9741,0.383 L40.1221,0.383 C44.7131,0.383 46.9041,3.374 46.9041,6.296 C46.9041,9.182 45.1311,11.13 42.9391,11.617 C45.4091,12 47.3571,14.364 47.3571,17.287 C47.3571,20.661 45.0961,23.582 40.5391,23.582 L26.9741,23.582 L26.9741,0.383 Z" id="Fill-1" fill="#FFFFFF"></path>
                    <path d="M63.146,5.4263 L58.416,5.4263 L58.416,10.6443 L63.146,10.6443 C64.711,10.6443 66.033,9.6343 66.033,8.0353 C66.033,6.4353 64.711,5.4263 63.146,5.4263 L63.146,5.4263 Z M61.477,15.7213 L58.416,15.7213 L58.416,23.5823 L52.433,23.5823 L52.433,0.3833 L64.051,0.3833 C69.198,0.3833 72.12,3.7913 72.12,8.1043 C72.12,12.1383 69.65,14.2953 67.494,15.0603 L72.224,23.5823 L65.372,23.5823 L61.477,15.7213 Z" id="Fill-3" fill="#FFFFFF"></path>
                    <mask id="mask-2" fill="white">
                        <use xlink:href="#path-1"></use>
                    </mask>
                    <g id="Clip-6"></g>
                    <polygon id="Fill-5" fill="#FFFFFF" mask="url(#mask-2)" points="77.127 23.5822 83.109 23.5822 83.109 0.3832 77.127 0.3832"></polygon>
                    <path d="M87.7935,12.0001 C87.7935,4.8341 93.2205,0.0001 100.1765,0.0001 C105.9495,0.0001 108.9405,3.1651 110.4715,6.2261 L105.3235,8.6611 C104.5585,6.8181 102.5765,5.2871 100.1765,5.2871 C96.5595,5.2871 93.8805,8.2091 93.8805,12.0001 C93.8805,15.7911 96.5595,18.7121 100.1765,18.7121 C102.5765,18.7121 104.5585,17.1821 105.3235,15.3391 L110.4715,17.7741 C108.9765,20.7641 105.9495,24.0001 100.1765,24.0001 C93.2205,24.0001 87.7935,19.1301 87.7935,12.0001" id="Fill-7" fill="#FFFFFF" mask="url(#mask-2)"></path>
                    <polygon id="Fill-8" fill="#FFFFFF" mask="url(#mask-2)" points="122.2715 14.8516 120.7065 16.7996 120.7065 23.5816 114.7245 23.5816 114.7245 0.3826 120.7065 0.3826 120.7065 9.9126 127.8365 0.3826 135.2095 0.3826 126.2015 11.2346 135.6975 23.5816 128.3585 23.5816"></polygon>
                    <polygon id="Fill-9" fill="#FFFFFF" mask="url(#mask-2)" points="159.4521 7.9307 153.5731 23.5817 150.9311 23.5817 145.0871 7.9307 145.0871 23.5817 139.1051 23.5817 139.1051 0.3827 147.4181 0.3827 152.2531 13.5297 157.1211 0.3827 165.4351 0.3827 165.4351 23.5817 159.4521 23.5817"></polygon>
                    <path d="M178.0962,15.0255 L184.6002,15.0255 L181.3302,5.6005 L178.0962,15.0255 Z M186.1652,20.0695 L176.5312,20.0695 L175.3492,23.5825 L168.8452,23.5825 L177.5752,0.3825 L185.0882,0.3825 L193.8532,23.5825 L187.3492,23.5825 L186.1652,20.0695 Z" id="Fill-10" fill="#FFFFFF" mask="url(#mask-2)"></path>
                    <polygon id="Fill-11" fill="#FFFFFF" mask="url(#mask-2)" points="204.7939 14.8516 203.2289 16.7996 203.2289 23.5816 197.2469 23.5816 197.2469 0.3826 203.2289 0.3826 203.2289 9.9126 210.3589 0.3826 217.7329 0.3826 208.7249 11.2346 218.2189 23.5816 210.8799 23.5816"></polygon>
                    <polygon id="Fill-12" fill="#FFFFFF" mask="url(#mask-2)" points="221.6265 0.3829 238.6355 0.3829 238.6355 5.4259 227.6095 5.4259 227.6095 9.2869 238.3925 9.2869 238.3925 14.3639 227.6095 14.3639 227.6095 18.5379 238.6355 18.5379 238.6355 23.5819 221.6265 23.5819"></polygon>
                    <path d="M254.877,5.4263 L250.147,5.4263 L250.147,10.6443 L254.877,10.6443 C256.442,10.6443 257.764,9.6343 257.764,8.0353 C257.764,6.4353 256.442,5.4263 254.877,5.4263 L254.877,5.4263 Z M253.208,15.7213 L250.147,15.7213 L250.147,23.5823 L244.164,23.5823 L244.164,0.3833 L255.781,0.3833 C260.929,0.3833 263.85,3.7913 263.85,8.1043 C263.85,12.1383 261.381,14.2953 259.225,15.0603 L263.955,23.5823 L257.103,23.5823 L253.208,15.7213 Z" id="Fill-13" fill="#FFFFFF" mask="url(#mask-2)"></path>
                    <path d="M270.2002,15.8262 C271.8692,17.4952 274.4452,18.8872 277.6092,18.8872 C279.6612,18.8872 280.9142,18.0172 280.9142,16.9042 C280.9142,15.5822 279.4182,15.0602 276.9492,14.5392 C273.1222,13.7742 267.7662,12.7992 267.7662,7.3052 C267.7662,3.4092 271.0702,0.0352 277.0182,0.0352 C280.7402,0.0352 283.9742,1.1482 286.4432,3.2692 L283.1742,7.5482 C281.2272,5.9482 278.6872,5.1482 276.6352,5.1482 C274.6522,5.1482 273.8882,5.9482 273.8882,6.9562 C273.8882,8.1742 275.3132,8.5922 277.8882,9.0772 C281.7132,9.8782 287.0002,10.9922 287.0002,16.2432 C287.0002,20.9042 283.5562,24.0002 277.3312,24.0002 C272.6352,24.0002 269.3662,22.5382 267.0352,20.3122 L270.2002,15.8262 Z" id="Fill-14" fill="#FFFFFF" mask="url(#mask-2)"></path>
                    <polygon id="Fill-15" fill="#FFFFFF" mask="url(#mask-2)" points="0 6.4672 13.946 6.4672 13.946 0.3832 0 0.3832"></polygon>
                    <polygon id="Fill-16" fill="#FFFFFF" mask="url(#mask-2)" points="5.609 15.0242 19.555 15.0242 19.555 8.9402 5.609 8.9402"></polygon>
                    <polygon id="Fill-17" fill="#FFFFFF" mask="url(#mask-2)" points="0 23.5822 13.946 23.5822 13.946 17.4982 0 17.4982"></polygon>
                </g>
                <path d="M174.98146,18.7358053 L174.98146,13.1436848 C175.840093,14.3105446 177.073001,14.9490151 178.460023,14.9490151 C181.234067,14.9490151 183.193511,12.8354577 183.193511,9.35689455 C183.193511,5.8783314 181.234067,3.78679027 178.460023,3.78679027 C177.028969,3.78679027 175.752028,4.51332561 174.98146,5.57010429 L174.98146,4.05098494 L173,4.05098494 L173,18.7358053 L174.98146,18.7358053 Z M177.931634,13.1877173 C176.720742,13.1877173 175.509849,12.4611819 174.98146,11.6245655 L174.98146,7.11123986 C175.509849,6.25260718 176.720742,5.54808806 177.931634,5.54808806 C179.913094,5.54808806 181.123986,7.15527231 181.123986,9.35689455 C181.123986,11.580533 179.913094,13.1877173 177.931634,13.1877173 Z M190.414832,14.9490151 C193.739282,14.9490151 195.78679,12.4391657 195.78679,9.35689455 C195.78679,6.29663963 193.739282,3.78679027 190.414832,3.78679027 C187.112399,3.78679027 185.042874,6.29663963 185.042874,9.35689455 C185.042874,12.4391657 187.112399,14.9490151 190.414832,14.9490151 Z M190.414832,13.1877173 C188.301275,13.1877173 187.112399,11.382387 187.112399,9.35689455 C187.112399,7.35341831 188.301275,5.54808806 190.414832,5.54808806 C192.550406,5.54808806 193.717265,7.35341831 193.717265,9.35689455 C193.717265,11.382387 192.550406,13.1877173 190.414832,13.1877173 Z M202.281576,14.6848204 L204.901506,6.51680185 L207.521437,14.6848204 L209.568946,14.6848204 L212.915411,4.05098494 L210.845886,4.05098494 L208.424102,12.1529548 L205.760139,4.05098494 L204.042874,4.05098494 L201.378911,12.1529548 L198.957126,4.05098494 L196.887601,4.05098494 L200.234067,14.6848204 L202.281576,14.6848204 Z M219.520278,14.9490151 C221.237543,14.9490151 222.734647,14.3986095 223.791425,13.363847 L222.866744,12.0648899 C222.07416,12.8794902 220.841251,13.3198146 219.718424,13.3198146 C217.582851,13.3198146 216.261877,11.8227115 216.107764,10.0173812 L224.517961,10.0173812 L224.517961,9.53302433 C224.517961,6.27462341 222.536501,3.78679027 219.344148,3.78679027 C216.239861,3.78679027 214.016222,6.27462341 214.016222,9.35689455 C214.016222,12.7033604 216.349942,14.9490151 219.520278,14.9490151 Z M222.580533,8.58632677 L216.085747,8.58632677 C216.195829,7.13325608 217.208575,5.41599073 219.344148,5.41599073 C221.589803,5.41599073 222.536501,7.17728853 222.580533,8.58632677 Z M228.987254,14.6848204 L228.987254,7.28736964 C229.449594,6.49478563 230.792584,5.74623407 231.783314,5.74623407 C232.047509,5.74623407 232.267671,5.76825029 232.465817,5.81228273 L232.465817,3.80880649 C231.056779,3.80880649 229.801854,4.62340672 228.987254,5.6801854 L228.987254,4.05098494 L227.005794,4.05098494 L227.005794,14.6848204 L228.987254,14.6848204 Z M239.290846,14.9490151 C241.008111,14.9490151 242.505214,14.3986095 243.561993,13.363847 L242.637312,12.0648899 C241.844728,12.8794902 240.611819,13.3198146 239.488992,13.3198146 C237.353418,13.3198146 236.032445,11.8227115 235.878331,10.0173812 L244.288528,10.0173812 L244.288528,9.53302433 C244.288528,6.27462341 242.307068,3.78679027 239.114716,3.78679027 C236.010429,3.78679027 233.78679,6.27462341 233.78679,9.35689455 C233.78679,12.7033604 236.12051,14.9490151 239.290846,14.9490151 Z M242.351101,8.58632677 L235.856315,8.58632677 C235.966396,7.13325608 236.979143,5.41599073 239.114716,5.41599073 C241.360371,5.41599073 242.307068,7.17728853 242.351101,8.58632677 Z M250.871379,14.9490151 C252.280417,14.9490151 253.557358,14.2224797 254.349942,13.165701 L254.349942,14.6848204 L256.331402,14.6848204 L256.331402,0 L254.349942,0 L254.349942,5.59212051 C253.491309,4.44727694 252.236385,3.78679027 250.871379,3.78679027 C248.097335,3.78679027 246.115875,5.96639629 246.115875,9.37891078 C246.115875,12.8574739 248.097335,14.9490151 250.871379,14.9490151 Z M251.399768,13.1877173 C249.418308,13.1877173 248.1854,11.580533 248.1854,9.37891078 C248.1854,7.15527231 249.418308,5.54808806 251.399768,5.54808806 C252.61066,5.54808806 253.799537,6.25260718 254.349942,7.11123986 L254.349942,11.6465817 C253.799537,12.5052144 252.61066,13.1877173 251.399768,13.1877173 Z M270.641947,14.9490151 C273.393975,14.9490151 275.375435,12.8574739 275.375435,9.37891078 C275.375435,5.96639629 273.415991,3.78679027 270.641947,3.78679027 C269.254925,3.78679027 268,4.44727694 267.163384,5.59212051 L267.163384,0 L265.181924,0 L265.181924,14.6848204 L267.163384,14.6848204 L267.163384,13.165701 C267.955968,14.2224797 269.210892,14.9490151 270.641947,14.9490151 Z M270.113557,13.1877173 C268.902665,13.1877173 267.691773,12.5052144 267.163384,11.6465817 L267.163384,7.13325608 C267.691773,6.27462341 268.902665,5.54808806 270.113557,5.54808806 C272.095017,5.54808806 273.327926,7.15527231 273.327926,9.37891078 C273.327926,11.6025492 272.095017,13.1877173 270.113557,13.1877173 Z M278.611819,19 C280.152955,18.9779838 281.319815,18.3835458 282.002317,16.7103129 L287.242178,4.05098494 L285.106605,4.05098494 L281.782155,12.3951333 L278.457706,4.05098494 L276.344148,4.05098494 L280.725377,14.7949015 L280.108922,16.2039397 C279.778679,16.9965238 279.294322,17.2387022 278.567787,17.2387022 C278.303592,17.2387022 277.929316,17.1726535 277.687138,17.0625724 L277.378911,18.8458864 C277.687138,18.9339513 278.281576,19 278.611819,19 Z" id="poweredby" fill="#DE095B" fill-rule="nonzero"></path>
            </g>
        </g>
    </g>
</svg>