<?xml version="1.0" encoding="UTF-8"?>
<svg width="192px" height="29px" viewBox="0 0 192 29" version="1.1" xmlns="http://www.w3.org/2000/svg" xmlns:xlink="http://www.w3.org/1999/xlink">
    <title>ABSENDEN</title>
    <g id="Page-1" stroke="none" stroke-width="1" fill="none" fill-rule="evenodd">
        <path d="M9.29709538,27 L10.9074013,23.4917541 L18.5966123,23.4917541 L18.5966123,27 L26.1650503,27 L24.1924255,1 L14.9734239,1 L1.16505029,27 L9.29709538,27 Z M19.1650503,18 L15.1650503,18 L19.0305965,8 L19.1650503,18 Z M42.2798828,27 C48.5398509,27 50.892323,22.6341829 50.892323,19.125937 C50.892323,16.904048 49.7360232,14.7601199 47.2639339,14.0974513 C50.6132162,13.7856072 53.1650503,10.5502249 53.1650503,7.19790105 C53.1650503,4.07946027 50.8125782,1 45.7487823,1 L34.0661667,1 L28.1650503,27 L42.2798828,27 Z M41.9150503,11 L38.1650503,11 L39.0400503,8 L42.4150503,8 C43.6233836,8 44.1650503,8.55102041 44.1650503,9.28571429 C44.1650503,10.1122449 43.456717,11 41.9150503,11 Z M40.7726452,21 L37.1650503,21 L38.038468,17 L41.5701136,17 C42.6334047,17 43.1650503,17.7476636 43.1650503,18.6074766 C43.1650503,19.953271 42.1777085,21 40.7726452,21 Z M62.1854585,28 C68.634438,28 72.6752544,23.773913 72.6752544,18.8434783 C72.6752544,14.6565217 68.7160707,12.7391304 65.8589278,11.4086957 C64.1854585,10.5869565 62.9609687,9.84347826 62.9609687,8.90434783 C62.9609687,8.0826087 63.5732136,7.33913043 64.9609687,7.33913043 C66.9201523,7.33913043 69.4099482,8.2 70.879336,9.84347826 L75.1650503,4.6 C72.756887,2.25217391 69.0426013,1 65.4507646,1 C58.7977033,1 54.879336,5.53913043 54.879336,9.80434783 C54.879336,14.3043478 58.879336,16.1826087 61.7772952,17.5130435 C63.4507646,18.3347826 64.634438,19.0391304 64.634438,19.9782609 C64.634438,20.8782609 63.8997442,21.6217391 62.4711727,21.6217391 C59.8589278,21.6217391 57.0426013,20.3695652 55.5323972,18.5304348 L51.1650503,23.8130435 C53.3283156,26.3173913 57.4915809,28 62.1854585,28 Z M90.2230468,27 L91.6378095,20.7241379 L82.3003754,20.7241379 L83.1492331,16.982009 L92.2441364,16.982009 L93.6588991,10.7061469 L84.6044176,10.7061469 L85.3724317,7.27586207 L94.7098658,7.27586207 L96.1650503,1 L79.1474756,1 L73.1650503,27 L90.2230468,27 Z M100.489726,27 L103.450765,13.2788606 L107.463752,27 L114.437778,27 L120.16505,1 L112.918297,1 L110.074141,13.9415292 L106.411804,1 L98.9312841,1 L93.1650503,27 L100.489726,27 Z M128.3635,27 C140.456523,27 144.16505,17.5667166 144.16505,11.173913 C144.16505,4.78110945 139.126291,1 134.087531,1 L124.130942,1 L118.16505,27 L128.3635,27 Z M129.575765,21 L127.16505,21 L130.138265,8 L132.5088,8 C134.638265,8 136.16505,9.54302671 136.16505,12.0504451 C136.16505,15.5222552 133.955229,21 129.575765,21 Z M160.223047,27 L161.63781,20.7241379 L152.300375,20.7241379 L153.149233,16.982009 L162.244136,16.982009 L163.658899,10.7061469 L154.604418,10.7061469 L155.372432,7.27586207 L164.709866,7.27586207 L166.16505,1 L149.147476,1 L143.16505,27 L160.223047,27 Z M171.489726,27 L174.450765,13.2788606 L178.463752,27 L185.437778,27 L191.16505,1 L183.918297,1 L181.074141,13.9415292 L177.411804,1 L169.931284,1 L164.16505,27 L171.489726,27 Z" id="ABSENDEN" stroke="#FFFFFF" fill-rule="nonzero"></path>
    </g>
</svg>